<?xml version="1.0" encoding="UTF-8" standalone="no"?>
<!-- Created with Inkscape (http://www.inkscape.org/) -->

<svg
   xmlns:dc="http://purl.org/dc/elements/1.1/"
   xmlns:cc="http://creativecommons.org/ns#"
   xmlns:rdf="http://www.w3.org/1999/02/22-rdf-syntax-ns#"
   xmlns:svg="http://www.w3.org/2000/svg"
   xmlns="http://www.w3.org/2000/svg"
   xmlns:sodipodi="http://sodipodi.sourceforge.net/DTD/sodipodi-0.dtd"
   xmlns:inkscape="http://www.inkscape.org/namespaces/inkscape"
   width="32"
   height="32"
   viewBox="0 0 31.999999 32.000001"
   id="svg4197"
   version="1.1"
   inkscape:version="0.91 r13725"
   sodipodi:docname="heliomug.svg"
   inkscape:export-filename="C:\Users\Crg\Desktop\heliomug pics\heliomug512.png"
   inkscape:export-xdpi="1439.9996"
   inkscape:export-ydpi="1439.9996">
  <defs
     id="defs4199" />
  <sodipodi:namedview
     id="base"
     pagecolor="#ffffff"
     bordercolor="#666666"
     borderopacity="1.0"
     inkscape:pageopacity="0.0"
     inkscape:pageshadow="2"
     inkscape:zoom="11.313709"
     inkscape:cx="29.014772"
     inkscape:cy="10.763384"
     inkscape:document-units="px"
     inkscape:current-layer="layer1"
     showgrid="true"
     units="px"
     inkscape:snap-bbox="true"
     inkscape:object-paths="true"
     inkscape:snap-intersection-paths="true"
     inkscape:object-nodes="true"
     inkscape:snap-center="true"
     inkscape:snap-object-midpoints="true"
     inkscape:window-width="1920"
     inkscape:window-height="1033"
     inkscape:window-x="-4"
     inkscape:window-y="-4"
     inkscape:window-maximized="1"
     inkscape:snap-grids="true">
    <inkscape:grid
       type="xygrid"
       id="grid4745"
       empspacing="2"
       snapvisiblegridlinesonly="false" />
  </sodipodi:namedview>
  <metadata
     id="metadata4202">
    <rdf:RDF>
      <cc:Work
         rdf:about="">
        <dc:format>image/svg+xml</dc:format>
        <dc:type
           rdf:resource="http://purl.org/dc/dcmitype/StillImage" />
        <dc:title></dc:title>
      </cc:Work>
    </rdf:RDF>
  </metadata>
  <g
     inkscape:label="Layer 1"
     inkscape:groupmode="layer"
     id="layer1"
     transform="translate(0,-1020.3621)">
    <circle
       style="fill:#ff0000;fill-opacity:1;stroke:#000000;stroke-width:0;stroke-linecap:round;stroke-linejoin:round;stroke-miterlimit:4;stroke-dasharray:none;stroke-dashoffset:0;stroke-opacity:1"
       id="path4707"
       cx="15.999999"
       cy="1036.3621"
       r="16" />
    <circle
       style="fill:#ffff00;fill-opacity:1;stroke:none;stroke-width:0.5;stroke-linecap:round;stroke-linejoin:round;stroke-miterlimit:4;stroke-dasharray:none;stroke-opacity:1"
       id="path4760"
       cx="15.999999"
       cy="1036.3621"
       r="6" />
    <path
       style="fill:#ffff00;fill-opacity:1;stroke:none;stroke-width:0.5;stroke-linecap:round;stroke-linejoin:round;stroke-miterlimit:4;stroke-dasharray:none;stroke-opacity:1"
       d="m 29.880641,1034.5352 -5.949957,0.7828 a 8,8 0 0 1 8.72e-4,2.0883 l 5.94868,0.7831 a 14,14 0 0 0 4.05e-4,-3.6542 z"
       id="path4768"
       inkscape:connector-curvature="0"
       inkscape:transform-center-x="-10.965431"
       inkscape:transform-center-y="0.00020000003" />
    <path
       inkscape:transform-center-y="-5.7920002"
       inkscape:transform-center-x="-9.6402067"
       inkscape:connector-curvature="0"
       id="path4773"
       d="m 27.107538,1027.8396 -4.761414,3.6529 a 8,8 0 0 1 1.044905,1.8081 l 5.543258,-2.2961 a 14,14 0 0 0 -1.826749,-3.1649 z"
       style="fill:#ffff00;fill-opacity:1;stroke:none;stroke-width:0.5;stroke-linecap:round;stroke-linejoin:round;stroke-miterlimit:4;stroke-dasharray:none;stroke-opacity:1" />
    <path
       style="fill:#ffff00;fill-opacity:1;stroke:none;stroke-width:0.5;stroke-linecap:round;stroke-linejoin:round;stroke-miterlimit:4;stroke-dasharray:none;stroke-opacity:1"
       d="m 21.35816,1023.4276 -2.297056,5.5442 a 8,8 0 0 1 1.808965,1.0434 l 3.652552,-4.7601 a 14,14 0 0 0 -3.164461,-1.8275 z"
       id="path4775"
       inkscape:connector-curvature="0"
       inkscape:transform-center-x="-5.7918636"
       inkscape:transform-center-y="-9.6407003" />
    <path
       inkscape:transform-center-y="-10.965471"
       inkscape:transform-center-x="-0.00018041901"
       inkscape:connector-curvature="0"
       id="path4777"
       d="m 14.173053,1022.4814 0.782791,5.95 a 8,8 0 0 1 2.088309,-9e-4 l 0.783153,-5.9487 a 14,14 0 0 0 -3.654253,-4e-4 z"
       style="fill:#ffff00;fill-opacity:1;stroke:none;stroke-width:0.5;stroke-linecap:round;stroke-linejoin:round;stroke-miterlimit:4;stroke-dasharray:none;stroke-opacity:1" />
    <path
       style="fill:#ffff00;fill-opacity:1;stroke:none;stroke-width:0.5;stroke-linecap:round;stroke-linejoin:round;stroke-miterlimit:4;stroke-dasharray:none;stroke-opacity:1"
       d="m 7.4774671,1025.2545 3.6529169,4.7615 a 8,8 0 0 1 1.808079,-1.0449 l -2.29612,-5.5433 a 14,14 0 0 0 -3.1648759,1.8267 z"
       id="path4779"
       inkscape:connector-curvature="0"
       inkscape:transform-center-x="5.7920342"
       inkscape:transform-center-y="-9.6402008" />
    <path
       inkscape:transform-center-y="-5.7918507"
       inkscape:transform-center-x="9.6406992"
       inkscape:connector-curvature="0"
       id="path4781"
       d="m 3.0654696,1031.0039 5.5442689,2.2971 a 8,8 0 0 1 1.0433923,-1.8089 l -4.7601482,-3.6526 a 14,14 0 0 0 -1.827513,3.1644 z"
       style="fill:#ffff00;fill-opacity:1;stroke:none;stroke-width:0.5;stroke-linecap:round;stroke-linejoin:round;stroke-miterlimit:4;stroke-dasharray:none;stroke-opacity:1" />
    <path
       style="fill:#ffff00;fill-opacity:1;stroke:none;stroke-width:0.5;stroke-linecap:round;stroke-linejoin:round;stroke-miterlimit:4;stroke-dasharray:none;stroke-opacity:1"
       d="m 2.1192677,1038.189 5.9500277,-0.7828 a 8,8 0 0 1 -8.457e-4,-2.0882 l -5.9487093,-0.7832 a 14,14 0 0 0 -4.727e-4,3.6542 z"
       id="path4783"
       inkscape:connector-curvature="0"
       inkscape:transform-center-x="10.965468"
       inkscape:transform-center-y="-0.00020051901" />
    <path
       style="fill:#0000ff;fill-opacity:1;stroke:none;stroke-width:0;stroke-linecap:round;stroke-linejoin:round;stroke-miterlimit:4;stroke-dasharray:none;stroke-opacity:1"
       d="m 9.999999,1038.3621 0,12 a 2,2 0 0 0 2,2 l 8,0 a 2,2 0 0 0 2,-2 l 2,0 a 2,2 0 0 0 2,-2 l 0,-6 a 2,2 0 0 0 -2,-2 l -2,0 0,-2 -12,0 z m 12,4 2,0 0,6 -2,0 0,-6 z"
       id="rect4280"
       inkscape:connector-curvature="0" />
  </g>
</svg>
